<svg width="38" height="38" viewBox="0 0 38 38" fill="none" xmlns="http://www.w3.org/2000/svg">
    <circle cx="19" cy="19" r="17.667" fill="#555" stroke="#fff" stroke-width="2"/>
    <g clip-path="url(#pl9cvma3fa)" fill="#fff">
        <path opacity=".5" d="M15.63 22.308c-.994 0-1.804.81-1.804 1.803 0 .994.81 1.804 1.805 1.804.994 0 1.804-.81 1.804-1.804s-.81-1.803-1.804-1.803zm0 2.55a.747.747 0 1 1 .001-1.494.747.747 0 0 1 0 1.494zM22.478 22.308c-.996 0-1.805.81-1.805 1.803 0 .994.81 1.804 1.805 1.804.995 0 1.805-.81 1.805-1.804s-.81-1.803-1.805-1.803zm0 2.55a.747.747 0 1 1 0-1.494.747.747 0 0 1 0 1.494z"/>
        <path opacity=".5" d="M10.984 25.968h-.032a.652.652 0 0 1-.618-.649V10.983c0-.358.291-.65.65-.65h16.14c.178 0 .34.073.459.191H10.524v15.254H12.595V21.19h.003v-4.564c0-.785.64-1.426 1.427-1.426h10.006c.787 0 1.427.64 1.427 1.425v9.152h2.125a.648.648 0 0 1-.46.19h-1.666V27.437h.003v1.178a.72.72 0 0 1-.719.718h-1.48a.72.72 0 0 1-.72-.718v-1.583h-6.968v1.583a.72.72 0 0 1-.72.718h-1.536a.72.72 0 0 1-.72-.718v-1.583h-.002v-1.064h-1.611zm16.6-14.944v-.499c.117.118.19.28.19.458v14.335a.648.648 0 0 1-.19.46V11.023zm-2.818 10.167h.5v-4.564c0-.682-.555-1.235-1.236-1.235H14.025c-.681 0-1.235.553-1.235 1.235v4.564h11.976zm-11.98 5.15v.5h12.48v-5.46h-12.48v4.96zm.504.691h-.5v1.583c0 .291.236.527.527.527h1.537c.29 0 .527-.236.527-.527v-1.583H13.29zm9.943 0h-.5v1.583c0 .291.237.527.527.527h1.481c.291 0 .528-.236.528-.527v-1.583h-2.036z" stroke="#fff"/>
    </g>
    <defs>
        <clipPath id="pl9cvma3fa">
            <path fill="#fff" transform="translate(9.834 9.834)" d="M0 0h18.442v20H0z"/>
        </clipPath>
    </defs>
</svg>
