<svg width="56" height="56" viewBox="0 0 56 56" fill="none" xmlns="http://www.w3.org/2000/svg">
    <g filter="url(#02a9fw5pxa)">
        <circle cx="28" cy="24" r="24" fill="#0073DD"/>
        <circle cx="28" cy="24" r="23" stroke="#fff" stroke-width="2"/>
    </g>
    <g clip-path="url(#jd582dz39b)" fill="#fff">
        <path d="M23.116 28.464a2.529 2.529 0 0 0-2.527 2.525 2.529 2.529 0 0 0 2.527 2.524 2.529 2.529 0 0 0 2.527-2.524 2.529 2.529 0 0 0-2.527-2.525zm0 3.57a1.046 1.046 0 0 1-1.045-1.044 1.046 1.046 0 0 1 2.09 0c0 .576-.469 1.044-1.045 1.044zM32.702 28.464a2.528 2.528 0 0 0-2.527 2.525 2.529 2.529 0 0 0 2.527 2.524 2.529 2.529 0 0 0 2.527-2.524 2.529 2.529 0 0 0-2.527-2.525zm0 3.57a1.046 1.046 0 0 1-1.045-1.044 1.046 1.046 0 0 1 2.09 0c0 .576-.469 1.044-1.045 1.044z"/>
        <path d="M16.61 34.289h1.556v1.489h.004v1.516c0 .94.766 1.705 1.707 1.705h2.151c.942 0 1.707-.766 1.707-1.705v-1.516h8.356v1.516c0 .94.766 1.705 1.706 1.705h2.074c.942 0 1.707-.766 1.707-1.705v-2.35h-.005v-.655h1.633c.888 0 1.61-.722 1.61-1.61v-20.07c0-.886-.722-1.609-1.61-1.609H16.61c-.888 0-1.61.722-1.61 1.61v20.07c0 .887.722 1.61 1.61 1.61v-.001zM35.905 26.2H19.838v-5.69a1.03 1.03 0 0 1 1.03-1.03h14.007c.568 0 1.03.462 1.03 1.03v5.69zm-16.07 7.91v-6.243h16.071v6.243H19.834zm2.232 3.183c0 .02-.018.038-.039.038h-2.151a.039.039 0 0 1-.038-.038v-1.516h2.228v1.516zm13.804.038h-2.074a.039.039 0 0 1-.038-.038v-1.516h2.15v1.516c0 .02-.017.038-.038.038zM16.668 12.667H39.15v19.955h-1.575V20.51a2.7 2.7 0 0 0-2.699-2.695H20.869a2.7 2.7 0 0 0-2.698 2.695v5.69h-.004v6.422h-1.497V12.667z"/>
    </g>
    <defs>
        <clipPath id="jd582dz39b">
            <path fill="#fff" transform="translate(15 11)" d="M0 0h25.818v28H0z"/>
        </clipPath>
        <filter id="02a9fw5pxa" x="0" y="0" width="56" height="56" filterUnits="userSpaceOnUse" color-interpolation-filters="sRGB">
            <feFlood flood-opacity="0" result="BackgroundImageFix"/>
            <feColorMatrix in="SourceAlpha" values="0 0 0 0 0 0 0 0 0 0 0 0 0 0 0 0 0 0 127 0" result="hardAlpha"/>
            <feOffset dy="4"/>
            <feGaussianBlur stdDeviation="2"/>
            <feComposite in2="hardAlpha" operator="out"/>
            <feColorMatrix values="0 0 0 0 0 0 0 0 0 0 0 0 0 0 0 0 0 0 0.25 0"/>
            <feBlend in2="BackgroundImageFix" result="effect1_dropShadow_139_10811"/>
            <feBlend in="SourceGraphic" in2="effect1_dropShadow_139_10811" result="shape"/>
        </filter>
    </defs>
</svg>
