<svg width="226" height="158" viewBox="0 0 226 158" fill="none" xmlns="http://www.w3.org/2000/svg">
    <path d="M68.352 84.848v11.648H55.68V118H42.24V96.496H2.432v-9.6l35.712-52.864H55.68v50.816h12.672zM42.24 60.912c0-5.973.256-10.71.768-14.208h-.384c-.341 1.195-1.152 2.901-2.432 5.12a131.378 131.378 0 0 1-4.48 7.168L18.176 84.848H42.24V60.912zm70.729 58.624c22.784 0 35.328-18.304 35.328-45.056s-12.544-45.056-35.328-45.056c-22.784 0-35.328 18.304-35.328 45.056s12.544 45.056 35.328 45.056zm0-11.008c-16.256 0-23.296-14.08-23.296-34.048 0-19.968 7.04-34.048 23.296-34.048s23.296 14.08 23.296 34.048c0 19.968-7.04 34.048-23.296 34.048zm109.758-23.68v11.648h-12.672V118h-13.44V96.496h-39.808v-9.6l35.712-52.864h17.536v50.816h12.672zm-26.112-23.936c0-5.973.256-10.71.768-14.208h-.384c-.341 1.195-1.152 2.901-2.432 5.12a131.194 131.194 0 0 1-4.48 7.168l-17.536 25.856h24.064V60.912z" fill="#000"/>
    <circle cx="104" cy="66" r="4" fill="#000"/>
    <circle cx="121" cy="66" r="4" fill="#000"/>
    <path d="M103 77.5c4.5 6.5 14.5 8 20 0" stroke="#000" stroke-width="4" stroke-linecap="round"/>
</svg>
