<svg width="52" height="52" viewBox="0 0 52 52" fill="none" xmlns="http://www.w3.org/2000/svg">
    <g filter="url(#ucuqfu6d6a)">
        <circle cx="26" cy="22" r="20" fill="#555"/>
        <circle cx="26" cy="22" r="21" stroke="#fff" stroke-width="2"/>
    </g>
    <g clip-path="url(#b55n7g3q7b)" fill="#fff">
        <path opacity=".5" d="M21.957 25.97a2.168 2.168 0 0 0-2.166 2.163c0 1.193.972 2.164 2.166 2.164a2.168 2.168 0 0 0 2.165-2.164 2.168 2.168 0 0 0-2.165-2.164zm0 3.059a.896.896 0 0 1-.896-.895.896.896 0 0 1 1.791 0 .896.896 0 0 1-.895.895zM30.173 25.97a2.167 2.167 0 0 0-2.166 2.163c0 1.193.972 2.164 2.166 2.164a2.168 2.168 0 0 0 2.166-2.164 2.168 2.168 0 0 0-2.166-2.164zm0 3.059a.896.896 0 0 1-.895-.895.896.896 0 0 1 1.79 0 .896.896 0 0 1-.895.895z"/>
        <path opacity=".5" d="M16.38 30.962h1.333v1.276h.004v1.3c0 .806.657 1.461 1.463 1.461h1.844c.808 0 1.463-.656 1.463-1.462v-1.299h7.162v1.3c0 .806.657 1.461 1.463 1.461h1.777c.808 0 1.463-.656 1.463-1.462v-2.013h-.003v-.562h1.399c.76 0 1.38-.619 1.38-1.38V12.38c0-.76-.62-1.38-1.38-1.38H16.38c-.76 0-1.38.618-1.38 1.38v17.203c0 .76.62 1.38 1.38 1.38v-.001zm16.539-6.933H19.147v-4.877c0-.486.396-.882.883-.882h12.006c.486 0 .883.396.883.882v4.877zm-13.775 6.78v-5.35H32.92v5.35H19.142zm1.913 2.728a.033.033 0 0 1-.033.033H19.18a.033.033 0 0 1-.033-.033v-1.299h1.91v1.3zm11.832.033h-1.777a.033.033 0 0 1-.033-.033v-1.299h1.843v1.3a.033.033 0 0 1-.033.032zM16.43 12.43H35.7v17.104h-1.35V19.152a2.315 2.315 0 0 0-2.313-2.31H20.03a2.315 2.315 0 0 0-2.313 2.31v4.877h-.004v5.504H16.43V12.429z"/>
    </g>
    <defs>
        <clipPath id="b55n7g3q7b">
            <path fill="#fff" transform="translate(15 11)" d="M0 0h22.13v24H0z"/>
        </clipPath>
        <filter id="ucuqfu6d6a" x="0" y="0" width="52" height="52" filterUnits="userSpaceOnUse" color-interpolation-filters="sRGB">
            <feFlood flood-opacity="0" result="BackgroundImageFix"/>
            <feColorMatrix in="SourceAlpha" values="0 0 0 0 0 0 0 0 0 0 0 0 0 0 0 0 0 0 127 0" result="hardAlpha"/>
            <feOffset dy="4"/>
            <feGaussianBlur stdDeviation="2"/>
            <feComposite in2="hardAlpha" operator="out"/>
            <feColorMatrix values="0 0 0 0 0 0 0 0 0 0 0 0 0 0 0 0 0 0 0.25 0"/>
            <feBlend in2="BackgroundImageFix" result="effect1_dropShadow_137_10850"/>
            <feBlend in="SourceGraphic" in2="effect1_dropShadow_137_10850" result="shape"/>
        </filter>
    </defs>
</svg>
