<svg width="23" height="24" viewBox="0 0 23 24" fill="none" xmlns="http://www.w3.org/2000/svg">
    <g clip-path="url(#h63rq4wrqa)">
        <path d="M1 19 .5 1C6.333.833 18.1.5 18.5.5c.4 0 1.833.333 2.5.5l.5 17.5-1.5 1c-.5 0-1.5.1-1.5.5v3l-2 .5-1-1L15 21H6.5L6 23l-2.5-.5-.5-3-2-.5z" fill="#fff"/>
        <path d="M6.957 14.97a2.168 2.168 0 0 0-2.166 2.163c0 1.193.972 2.164 2.166 2.164a2.168 2.168 0 0 0 2.166-2.164 2.168 2.168 0 0 0-2.166-2.164zm0 3.059a.896.896 0 0 1-.896-.895.896.896 0 0 1 1.792 0 .896.896 0 0 1-.896.895zM15.173 14.97a2.167 2.167 0 0 0-2.166 2.163c0 1.193.972 2.164 2.166 2.164a2.168 2.168 0 0 0 2.166-2.164 2.168 2.168 0 0 0-2.166-2.164zm0 3.059a.896.896 0 0 1-.896-.895.896.896 0 0 1 1.792 0 .896.896 0 0 1-.896.895z" fill="#999"/>
        <path d="M1.38 19.962h1.333v1.276h.004v1.3c0 .806.657 1.461 1.463 1.461h1.844c.808 0 1.463-.656 1.463-1.462v-1.299h7.162v1.3c0 .806.657 1.461 1.463 1.461h1.777c.808 0 1.463-.656 1.463-1.462v-2.013h-.003v-.562h1.399c.76 0 1.38-.619 1.38-1.38V1.38c0-.76-.62-1.38-1.38-1.38H1.38C.62 0 0 .619 0 1.38v17.203c0 .76.62 1.38 1.38 1.38v-.001zm16.539-6.933H4.147V8.152c0-.486.396-.882.883-.882h12.006c.486 0 .883.396.883.882v4.877zM4.144 19.81v-5.35h13.775v5.35H4.144zm1.913 2.728a.033.033 0 0 1-.033.033H4.18a.033.033 0 0 1-.033-.033v-1.299h1.91v1.3zm11.832.033h-1.777a.033.033 0 0 1-.033-.033v-1.299h1.843v1.3a.033.033 0 0 1-.033.032zM1.43 1.43H20.7v17.104h-1.35V8.152a2.315 2.315 0 0 0-2.313-2.31H5.03a2.315 2.315 0 0 0-2.313 2.31v4.877h-.004v5.504H1.43V1.429z" fill="#999"/>
    </g>
    <defs>
        <clipPath id="h63rq4wrqa">
            <path fill="#fff" d="M0 0h22.13v24H0z"/>
        </clipPath>
    </defs>
</svg>
