<svg width="30" height="30" viewBox="0 0 30 30" fill="none" xmlns="http://www.w3.org/2000/svg">
    <circle cx="15" cy="15" r="15" fill="#0073DD"/>
    <g clip-path="url(#qk3fua72ya)" fill="#fff">
        <path d="M11.947 17.79c-.87 0-1.579.708-1.579 1.578a1.58 1.58 0 0 0 3.159 0 1.58 1.58 0 0 0-1.58-1.578zm0 2.231a.654.654 0 1 1 .001-1.307.654.654 0 0 1 0 1.307zM17.939 17.79a1.58 1.58 0 0 0-1.58 1.578 1.58 1.58 0 0 0 3.159 0 1.58 1.58 0 0 0-1.58-1.578zm0 2.231a.654.654 0 1 1 0-1.307.654.654 0 0 1 0 1.307z"/>
        <path d="M7.881 21.43h.973v.931h.002v.947c0 .589.48 1.066 1.067 1.066h1.345c.588 0 1.066-.478 1.066-1.066v-.947h5.223v.947c0 .589.479 1.066 1.066 1.066h1.296c.589 0 1.067-.478 1.067-1.066V21.84h-.003v-.41h1.02c.556 0 1.007-.45 1.007-1.006V7.881c0-.554-.451-1.006-1.006-1.006H7.88c-.555 0-1.006.451-1.006 1.006v12.544c0 .555.451 1.006 1.006 1.006zm12.06-5.055H9.899V12.82c0-.354.289-.643.644-.643h8.754c.355 0 .644.289.644.643v3.556zM9.896 21.32v-3.902h10.045v3.902H9.896zm1.396 1.99c0 .012-.011.023-.024.023H9.923a.024.024 0 0 1-.024-.024v-.947h1.393v.947zm8.627.023h-1.296a.024.024 0 0 1-.024-.024v-.947h1.344v.947a.024.024 0 0 1-.024.024zM7.918 7.918h14.05v12.472h-.984v-7.57c0-.929-.757-1.685-1.686-1.685h-8.755c-.93 0-1.687.756-1.687 1.685v3.556h-.002v4.014h-.936V7.917z"/>
    </g>
    <defs>
        <clipPath id="qk3fua72ya">
            <path fill="#fff" transform="translate(6.875 6.875)" d="M0 0h16.136v17.5H0z"/>
        </clipPath>
    </defs>
</svg>
