<svg width="40" height="38" viewBox="0 0 40 38" fill="none" xmlns="http://www.w3.org/2000/svg">
    <circle cx="19" cy="19" r="18" fill="#F2F0EE" stroke="#999"/>
    <g clip-path="url(#408w2hof2a)">
        <path d="M9 27 8.5 9c5.833-.167 17.6-.5 18-.5.4 0 1.833.333 2.5.5l.5 17.5-1.5 1c-.5 0-1.5.1-1.5.5v3l-2 .5-1-1L23 29h-8.5l-.5 2-2.5-.5-.5-3-2-.5z" fill="#fff"/>
        <path d="M14.957 22.97a2.168 2.168 0 0 0-2.166 2.163c0 1.193.972 2.164 2.166 2.164a2.168 2.168 0 0 0 2.165-2.164 2.168 2.168 0 0 0-2.165-2.164zm0 3.06a.896.896 0 0 1-.896-.896.896.896 0 0 1 1.791 0 .896.896 0 0 1-.895.895zM23.173 22.97a2.167 2.167 0 0 0-2.166 2.163c0 1.193.972 2.164 2.166 2.164a2.168 2.168 0 0 0 2.166-2.164 2.168 2.168 0 0 0-2.166-2.164zm0 3.06a.896.896 0 0 1-.895-.896.896.896 0 0 1 1.79 0 .896.896 0 0 1-.895.895z" fill="#999"/>
        <path d="M9.38 27.962h1.333v1.276h.004v1.3c0 .806.657 1.461 1.463 1.461h1.844c.808 0 1.463-.656 1.463-1.462v-1.299h7.162v1.3c0 .806.657 1.461 1.463 1.461h1.777c.808 0 1.463-.656 1.463-1.462v-2.013h-.003v-.562h1.399c.76 0 1.38-.619 1.38-1.38V9.38c0-.76-.62-1.38-1.38-1.38H9.38C8.62 8 8 8.619 8 9.38v17.203c0 .76.62 1.38 1.38 1.38v-.001zm16.539-6.933H12.147v-4.877c0-.486.396-.882.883-.882h12.006c.486 0 .883.396.883.882v4.877zm-13.776 6.78v-5.35H25.92v5.35H12.143zm1.914 2.728a.033.033 0 0 1-.033.033H12.18a.033.033 0 0 1-.033-.033v-1.299h1.91v1.3zm11.832.033h-1.777a.033.033 0 0 1-.033-.033v-1.299h1.843v1.3a.033.033 0 0 1-.033.032zM9.43 9.43H28.7v17.104h-1.35V16.152a2.315 2.315 0 0 0-2.313-2.31H13.03a2.315 2.315 0 0 0-2.313 2.31v4.877h-.004v5.504H9.43V9.429z" fill="#999"/>
    </g>
    <circle cx="36" cy="15" r="4" fill="#3FB16B"/>
    <circle cx="36" cy="8" r="4" fill="#EFB036"/>
    <defs>
        <clipPath id="408w2hof2a">
            <path fill="#fff" transform="translate(8 8)" d="M0 0h22.13v24H0z"/>
        </clipPath>
    </defs>
</svg>
