<svg width="49" height="49" viewBox="0 0 49 49" fill="none" xmlns="http://www.w3.org/2000/svg">
    <circle cx="24.125" cy="24.5" r="24" fill="#2D6894"/>
    <g clip-path="url(#8bbapatnxa)">
        <path d="M33.125 22v2c0 9.627-5.373 14-12 14h-3.757a17.056 17.056 0 0 0-.243 3h-2c0-1.363.116-2.6.346-3.732-.23-1.294-.346-3.05-.346-5.268 0-5.523 4.477-10 10-10 2 0 4 1 8 0zm-8 2a8 8 0 0 0-8 8c0 .362.003.711.01 1.046 1.254-1.978 3.091-3.541 5.494-4.914l.992 1.736c-2.855 1.632-4.749 3.486-5.72 6.132h3.224c6.015 0 9.871-3.973 9.997-11.612-1.372.133-2.647.048-4.22-.188-1.15-.173-1.376-.2-1.777-.2z" fill="#fff"/>
    </g>
    <path d="M14.035 14.92c0-.624.088-1.196.264-1.716.184-.52.44-.964.768-1.332.328-.376.72-.668 1.176-.876a3.6 3.6 0 0 1 1.512-.312c.744 0 1.404.188 1.98.564.576.368 1.004.912 1.284 1.632l-1.128.504c-.176-.496-.448-.876-.816-1.14-.36-.264-.8-.396-1.32-.396-.376 0-.712.072-1.008.216a2.025 2.025 0 0 0-.732.624c-.192.264-.34.588-.444.972a4.725 4.725 0 0 0-.156 1.26c0 .464.052.888.156 1.272.104.376.252.7.444.972.2.264.444.468.732.612.296.144.632.216 1.008.216.52 0 .96-.132 1.32-.396.368-.264.64-.644.816-1.14l1.128.504c-.28.72-.708 1.268-1.284 1.644-.576.368-1.236.552-1.98.552a3.505 3.505 0 0 1-2.688-1.176 4.1 4.1 0 0 1-.768-1.344 5.325 5.325 0 0 1-.264-1.716zm11.701-4.236c.56 0 1.072.104 1.536.312.464.208.86.5 1.188.876.336.368.592.812.768 1.332.184.52.276 1.092.276 1.716 0 .624-.092 1.196-.276 1.716-.176.52-.432.968-.768 1.344a3.474 3.474 0 0 1-1.188.864 3.713 3.713 0 0 1-1.536.312c-.56 0-1.072-.104-1.536-.312a3.505 3.505 0 0 1-1.176-.864 4.1 4.1 0 0 1-.768-1.344 5.325 5.325 0 0 1-.264-1.716c0-.624.088-1.196.264-1.716.184-.52.44-.964.768-1.332.328-.376.72-.668 1.176-.876a3.713 3.713 0 0 1 1.536-.312zm.012 1.164c-.376 0-.712.072-1.008.216a2.099 2.099 0 0 0-.756.624c-.2.264-.352.588-.456.972a4.725 4.725 0 0 0-.156 1.26c0 .464.052.888.156 1.272.104.376.256.7.456.972.208.264.46.468.756.612.296.144.632.216 1.008.216s.712-.072 1.008-.216c.296-.144.544-.348.744-.612.208-.272.364-.596.468-.972a4.86 4.86 0 0 0 .156-1.272c0-.464-.052-.884-.156-1.26a2.684 2.684 0 0 0-.468-.972c-.2-.272-.448-.48-.744-.624a2.275 2.275 0 0 0-1.008-.216zm4.776 3.064c.048-.144.115-.29.2-.44.085-.15.195-.285.328-.408.139-.128.302-.23.488-.304.192-.08.413-.12.664-.12.283 0 .533.043.752.128.219.085.4.203.544.352.15.144.261.315.336.512.08.197.12.41.12.64 0 .261-.04.499-.12.712a2.5 2.5 0 0 1-.312.576c-.128.17-.272.328-.432.472-.16.139-.317.27-.472.392-.154.123-.301.243-.44.36-.139.117-.25.235-.336.352h2.184V19h-3.44v-.736c.096-.213.221-.408.376-.584.155-.181.318-.35.488-.504.17-.16.341-.312.512-.456.176-.144.334-.288.472-.432.139-.15.25-.301.336-.456a.98.98 0 0 0 .136-.504c0-.112-.013-.213-.04-.304a.569.569 0 0 0-.352-.416.887.887 0 0 0-.36-.064.687.687 0 0 0-.496.184 1.193 1.193 0 0 0-.296.52l-.84-.336z" fill="#fff"/>
    <defs>
        <clipPath id="8bbapatnxa">
            <path fill="#fff" transform="translate(12 19)" d="M0 0h24v24H0z"/>
        </clipPath>
    </defs>
</svg>
