<svg width="48" height="49" viewBox="0 0 48 49" fill="none" xmlns="http://www.w3.org/2000/svg">
    <circle cx="24" cy="24.5" r="24" fill="#2D6894"/>
    <path d="M34.833 22.75h-1.291v-5h1.291V14h2.584v3.75h1.291v5h-1.291v8.75a3.69 3.69 0 0 1-1.135 2.652 3.942 3.942 0 0 1-2.74 1.098 3.942 3.942 0 0 1-2.74-1.098 3.69 3.69 0 0 1-1.135-2.652v-5h-2.584v6.25h1.292v2.5H11.583v-2.5h1.292V14c0-.332.136-.65.378-.884.243-.234.571-.366.914-.366h11.625c.342 0 .67.132.913.366.242.235.378.553.378.884v10h2.584c.685 0 1.342.263 1.826.732a2.46 2.46 0 0 1 .757 1.768v5c0 .331.136.65.378.884.243.234.571.366.914.366.342 0 .67-.132.913-.366a1.23 1.23 0 0 0 .378-.884v-8.75zm-10.333 10v-17.5h-9.042v17.5H24.5z" fill="#fff" stroke="#2D6894"/>
</svg>
