<svg width="48" height="48" viewBox="0 0 48 48" fill="none" xmlns="http://www.w3.org/2000/svg">
    <circle cx="24" cy="24" r="24" fill="#2D6894"/>
    <path d="M24.509 38c7.46 0 13.509-6.048 13.509-13.509s-5.572-13.017-12.615-13.478V9.787h2.704V8h-7.17v1.787h2.678v1.226C16.57 11.473 11 17.33 11 24.49S17.048 38 24.509 38zm0-25.23c6.463 0 11.721 5.258 11.721 11.722 0 6.464-5.257 11.722-11.721 11.722s-11.722-5.26-11.722-11.723c0-6.463 5.258-11.72 11.722-11.72z" fill="#fff"/>
    <path d="M21.798 24.156a3.03 3.03 0 0 0 1.154 4.12 3.029 3.029 0 0 0 4.12-1.152 3.03 3.03 0 0 0-1.685-4.357l-.084-7.63-1.788.02.084 7.575a3.012 3.012 0 0 0-1.802 1.423l.001.001zm3.718 2.09a1.24 1.24 0 0 1-1.687.472 1.239 1.239 0 1 1 1.685-.471h.001z" fill="#fff"/>
    <path d="M38.069 20.486h-2.503v3.01h2.502v-3.01z" fill="#2D6894"/>
    <path d="M32 18.646 36.666 20 38 15" stroke="#fff" stroke-width="1.5" stroke-miterlimit="10"/>
</svg>
