<svg width="49" height="48" viewBox="0 0 49 48" fill="none" xmlns="http://www.w3.org/2000/svg">
    <circle cx="24.334" cy="24" r="24" fill="#2D6894"/>
    <g clip-path="url(#s2pknt5h5a)" fill="#fff">
        <path d="M24.509 38c7.46 0 13.509-6.048 13.509-13.509s-5.572-13.017-12.615-13.478V9.787h2.704V8h-7.17v1.787h2.678v1.226C16.57 11.473 11 17.33 11 24.49S17.048 38 24.509 38zm0-25.23c6.463 0 11.721 5.258 11.721 11.722 0 6.464-5.257 11.722-11.721 11.722s-11.722-5.26-11.722-11.723c0-6.463 5.258-11.72 11.722-11.72z"/>
        <path d="M21.798 24.156a3.03 3.03 0 0 0 1.154 4.12 3.029 3.029 0 0 0 4.12-1.152 3.03 3.03 0 0 0-1.685-4.357l-.084-7.63-1.788.02.084 7.575a3.012 3.012 0 0 0-1.802 1.423l.001.001zm3.718 2.09a1.24 1.24 0 0 1-1.687.472 1.24 1.24 0 0 1-.473-1.686 1.24 1.24 0 0 1 2.158 1.215h.002z"/>
    </g>
    <defs>
        <clipPath id="s2pknt5h5a">
            <path fill="#fff" transform="translate(11 8)" d="M0 0h27.017v30H0z"/>
        </clipPath>
    </defs>
</svg>
