<svg width="49" height="48" viewBox="0 0 49 48" fill="none" xmlns="http://www.w3.org/2000/svg">
    <circle cx="24.667" cy="24" r="24" fill="#2D6894"/>
    <g clip-path="url(#tkkfiihgfa)">
        <path d="M37.242 25.432c0 7-5.674 12.674-12.674 12.674-7 0-12.674-5.675-12.674-12.674s5.674-12.674 12.674-12.674" stroke="#fff" stroke-width="2" stroke-miterlimit="10"/>
        <path d="M26.701 12.89c5.527.944 9.837 5.49 10.462 11.157" stroke="#fff" stroke-width="2" stroke-miterlimit="10" stroke-dasharray="4 1 4 1"/>
        <path d="M28.216 10.69V9h-6.93v1.69h6.93z" fill="#fff"/>
        <path d="M25.576 10.085h-1.69v3.58h1.69v-3.58zM22.198 24.957a3.071 3.071 0 0 0 1.17 4.178 3.07 3.07 0 0 0 4.177-1.168 3.071 3.071 0 0 0-1.708-4.418l-.086-7.736-1.812.02.084 7.68a3.054 3.054 0 0 0-1.826 1.443v.002zm3.769 2.12a1.258 1.258 0 0 1-1.71.478 1.258 1.258 0 0 1-.48-1.71 1.257 1.257 0 0 1 2.188 1.232h.002z" fill="#fff"/>
    </g>
    <defs>
        <clipPath id="tkkfiihgfa">
            <path fill="#fff" transform="translate(10 9)" d="M0 0h29v31H0z"/>
        </clipPath>
    </defs>
</svg>
