<svg width="19" height="18" viewBox="0 0 19 18" fill="none" xmlns="http://www.w3.org/2000/svg">
    <path fill-rule="evenodd" clip-rule="evenodd" d="M17.94 9.035c-1.628-3.288-5.02-5.573-8.931-5.573-3.912 0-7.304 2.285-8.931 5.573-.104.208-.104.45 0 .623 1.627 3.289 5.02 5.573 8.93 5.573 3.912 0 7.305-2.284 8.931-5.573a.662.662 0 0 0 0-.623zm-8.931 4.12A3.797 3.797 0 0 1 5.2 9.346a3.797 3.797 0 0 1 3.808-3.808 3.797 3.797 0 0 1 3.807 3.808 3.797 3.797 0 0 1-3.807 3.807zm0-6.232a2.408 2.408 0 0 0-2.423 2.424 2.408 2.408 0 0 0 2.423 2.423 2.408 2.408 0 0 0 2.423-2.423 2.408 2.408 0 0 0-2.423-2.424z" fill="#2D6894"/>
</svg>
