<svg width="19" height="18" viewBox="0 0 19 18" fill="none" xmlns="http://www.w3.org/2000/svg">
    <path fill-rule="evenodd" clip-rule="evenodd" d="M17.94 8.649c-.554-1.108-1.281-2.112-2.181-2.908l-2.943 2.908v.311a3.797 3.797 0 0 1-3.807 3.808h-.312l-1.87 1.869c.693.138 1.42.242 2.147.242 3.912 0 7.304-2.284 8.93-5.573.14-.242.14-.45.035-.657zm-1.143-6.75-.727-.727c-.207-.208-.588-.173-.83.103l-2.527 2.527c-1.143-.484-2.389-.727-3.704-.727-3.912 0-7.304 2.285-8.931 5.574-.104.207-.104.45 0 .623.761 1.557 1.904 2.838 3.323 3.807l-2.077 2.112c-.242.242-.277.623-.104.83l.727.727c.208.208.589.174.83-.103L16.694 2.729c.277-.242.312-.623.104-.83zM5.201 8.96a3.797 3.797 0 0 1 3.808-3.808c.692 0 1.315.173 1.869.485L9.839 6.675c-.277-.069-.553-.138-.83-.138A2.408 2.408 0 0 0 6.586 8.96c0 .277.069.554.138.83l-1.038 1.04A3.757 3.757 0 0 1 5.2 8.96z" fill="#B0ADAB"/>
</svg>
